<?xml version="1.0" encoding="UTF-8" standalone="no"?>
<!DOCTYPE svg PUBLIC "-//W3C//DTD SVG 1.1//EN"
 "http://www.w3.org/Graphics/SVG/1.1/DTD/svg11.dtd">
<!-- Generated by graphviz version 2.36.0 (20140111.2315)
 -->
<!-- Title: %3 Pages: 1 -->
<svg width="1496pt" height="3024pt"
 viewBox="0.00 0.00 1496.00 3024.00" xmlns="http://www.w3.org/2000/svg" xmlns:xlink="http://www.w3.org/1999/xlink">
<g id="graph0" class="graph" transform="scale(1 1) rotate(0) translate(4 3020)">
<title>%3</title>
<polygon fill="white" stroke="none" points="-4,4 -4,-3020 1492,-3020 1492,4 -4,4"/>
<!-- unhappy -->
<g id="node1" class="node"><title>unhappy</title>
<path fill="none" stroke="black" d="M461.189,-3015.75C461.189,-3015.75 364.811,-3015.75 364.811,-3015.75 358.811,-3015.75 352.811,-3009.75 352.811,-3003.75 352.811,-3003.75 352.811,-2986.25 352.811,-2986.25 352.811,-2980.25 358.811,-2974.25 364.811,-2974.25 364.811,-2974.25 461.189,-2974.25 461.189,-2974.25 467.189,-2974.25 473.189,-2980.25 473.189,-2986.25 473.189,-2986.25 473.189,-3003.75 473.189,-3003.75 473.189,-3009.75 467.189,-3015.75 461.189,-3015.75"/>
<text text-anchor="middle" x="413" y="-3000.42" font-family="Times,serif" font-size="14.00">React가 당신을</text>
<text text-anchor="middle" x="413" y="-2983.8" font-family="Times,serif" font-size="14.00"> &#160;&#160;&#160;슬프게 했군요.</text>
</g>
<!-- are_you_using_react_boilerplates -->
<g id="node2" class="node"><title>are_you_using_react_boilerplates</title>
<polygon fill="none" stroke="black" points="413,-2935.73 135.098,-2878 413,-2820.27 690.902,-2878 413,-2935.73"/>
<text text-anchor="middle" x="413" y="-2891.73" font-family="Times,serif" font-size="14.00">당신은 React를 시작할 떄</text>
<text text-anchor="middle" x="413" y="-2875.11" font-family="Times,serif" font-size="14.00"> &#160;&#160;&#160;템플릿처럼 일정부분이 완성된 프로젝트</text>
<text text-anchor="middle" x="413" y="-2858.49" font-family="Times,serif" font-size="14.00"> &#160;&#160;&#160;(보일러플레이트)를 복사해서 익혔나요?</text>
</g>
<!-- unhappy&#45;&gt;are_you_using_react_boilerplates -->
<g id="edge1" class="edge"><title>unhappy&#45;&gt;are_you_using_react_boilerplates</title>
<path fill="none" stroke="black" d="M413,-2974.23C413,-2966.24 413,-2956.5 413,-2946.34"/>
<polygon fill="black" stroke="black" points="416.5,-2946.09 413,-2936.09 409.5,-2946.09 416.5,-2946.09"/>
</g>
<!-- boilerplates_dont_teach -->
<g id="node3" class="node"><title>boilerplates_dont_teach</title>
<polygon fill="none" stroke="black" points="399.994,-2765.96 0.00581199,-2765.96 0.00581199,-2478.04 399.994,-2478.04 399.994,-2765.96"/>
<text text-anchor="middle" x="200" y="-2750.78" font-family="Times,serif" font-size="14.00">보일러 플레이트를 복사해서 React를 배우는 것은</text>
<text text-anchor="middle" x="200" y="-2734.16" font-family="Times,serif" font-size="14.00"> &#160;&#160;&#160;마치 유명 레스토랑에서 음식을 먹으면서 배우는 것과도</text>
<text text-anchor="middle" x="200" y="-2717.53" font-family="Times,serif" font-size="14.00"> &#160;&#160;&#160;같습니다.</text>
<text text-anchor="middle" x="200" y="-2700.91" font-family="Times,serif" font-size="14.00"> &#160;&#160;&#160;이렇게는 안되요. 당신은 기초부터 배울 필요가 있습니다.</text>
<text text-anchor="middle" x="200" y="-2684.29" font-family="Times,serif" font-size="14.00"> &#160;&#160;&#160;트렌드를 놓칠까봐 생기는 걱정은 무시해도 좋습니다.</text>
<text text-anchor="middle" x="200" y="-2667.67" font-family="Times,serif" font-size="14.00"> &#160;&#160;&#160;사실 무근이죠.</text>
<text text-anchor="middle" x="200" y="-2651.04" font-family="Times,serif" font-size="14.00"> &#160;&#160;&#160;사람들은 보일러 플레이트를 당신이 배우기 좋게 만드는</text>
<text text-anchor="middle" x="200" y="-2634.42" font-family="Times,serif" font-size="14.00"> &#160;&#160;&#160;것이라기 보다 자신이 만든 것 혹은 배운것을 자랑하려고</text>
<text text-anchor="middle" x="200" y="-2617.8" font-family="Times,serif" font-size="14.00"> &#160;&#160;&#160;만듭니다.그것들은 파워유저들을 위해 만들어졌기에 때로는</text>
<text text-anchor="middle" x="200" y="-2601.18" font-family="Times,serif" font-size="14.00"> &#160;&#160;&#160;그들이 인정하는 것보다 실험적입니다.</text>
<text text-anchor="middle" x="200" y="-2584.56" font-family="Times,serif" font-size="14.00"> &#160;&#160;&#160;자랑을 위해 만들어진 보일러플레이트들은 관심을 끌기 위해</text>
<text text-anchor="middle" x="200" y="-2567.93" font-family="Times,serif" font-size="14.00"> &#160;&#160;&#160;경쟁합니다.</text>
<text text-anchor="middle" x="200" y="-2551.31" font-family="Times,serif" font-size="14.00"> &#160;&#160;&#160;React를 배울 거라면, Pete Hunt가 제안한 순서대로</text>
<text text-anchor="middle" x="200" y="-2534.69" font-family="Times,serif" font-size="14.00"> &#160;&#160;&#160;배우는 것이 좋습니다. 주소는 다음과 같습니다.</text>
<text text-anchor="middle" x="200" y="-2518.07" font-family="Times,serif" font-size="14.00"> &#160;&#160;&#160;https://github.com/petehunt/react&#45;howto</text>
<text text-anchor="middle" x="200" y="-2504.07" font-family="Times,serif" font-size="14.00"> &#160;&#160;&#160;당신이 직접 만드는 것이 보일러플레이트를 사용하는 것보다</text>
<text text-anchor="middle" x="200" y="-2487.44" font-family="Times,serif" font-size="14.00"> &#160;&#160;&#160;빠를 것입니다.</text>
</g>
<!-- are_you_using_react_boilerplates&#45;&gt;boilerplates_dont_teach -->
<g id="edge2" class="edge"><title>are_you_using_react_boilerplates&#45;&gt;boilerplates_dont_teach</title>
<path fill="none" stroke="black" d="M372.435,-2828.63C358.955,-2812.55 343.152,-2793.71 326.681,-2774.07"/>
<polygon fill="black" stroke="black" points="329.197,-2771.62 320.09,-2766.21 323.834,-2776.12 329.197,-2771.62"/>
<text text-anchor="middle" x="357.993" y="-2790.11" font-family="Times,serif" font-size="14.00">네</text>
</g>
<!-- steal_from_boilerplates -->
<g id="node4" class="node"><title>steal_from_boilerplates</title>
<polygon fill="none" stroke="black" points="836.109,-2692.48 417.891,-2692.48 417.891,-2551.52 836.109,-2551.52 836.109,-2692.48"/>
<text text-anchor="middle" x="627" y="-2677.29" font-family="Times,serif" font-size="14.00">보일러플레이트들은 기술들이 어떻게 엮여져 있는지 배우기에</text>
<text text-anchor="middle" x="627" y="-2660.67" font-family="Times,serif" font-size="14.00"> &#160;&#160;&#160;좋은방법은 아니지만, 당신이 각각 이 기술들을 개별적으로</text>
<text text-anchor="middle" x="627" y="-2644.04" font-family="Times,serif" font-size="14.00"> &#160;&#160;&#160;이해한뒤라면! 어떻게 이런 기술들이 잘 묶일 수 있는지를</text>
<text text-anchor="middle" x="627" y="-2627.42" font-family="Times,serif" font-size="14.00"> &#160;&#160;&#160;파악하기에 그들은 유용합니다. 그것은 새로운 기술을 발견</text>
<text text-anchor="middle" x="627" y="-2610.8" font-family="Times,serif" font-size="14.00"> &#160;&#160;&#160;할 수 있는 좋은 방법입니다. 그렇다고 해서 그것들 모두를</text>
<text text-anchor="middle" x="627" y="-2594.18" font-family="Times,serif" font-size="14.00"> &#160;&#160;&#160;사용하는 의무감을 느낄 필요는 없습니다. 보일러플레이트땜에</text>
<text text-anchor="middle" x="627" y="-2577.56" font-family="Times,serif" font-size="14.00"> &#160;&#160;&#160;질리지 마세요. 보일러 플레이트는 당신의 어플리케이션을 위한</text>
<text text-anchor="middle" x="627" y="-2560.93" font-family="Times,serif" font-size="14.00"> &#160;&#160;&#160;견고한 기반이 아니라 독창적인 기술의 집합임을 명심하세요.</text>
</g>
<!-- are_you_using_react_boilerplates&#45;&gt;steal_from_boilerplates -->
<g id="edge3" class="edge"><title>are_you_using_react_boilerplates&#45;&gt;steal_from_boilerplates</title>
<path fill="none" stroke="black" d="M453.755,-2828.63C484.237,-2792.45 526.544,-2742.23 561.719,-2700.48"/>
<polygon fill="black" stroke="black" points="564.433,-2702.69 568.2,-2692.79 559.08,-2698.18 564.433,-2702.69"/>
<text text-anchor="middle" x="509.98" y="-2790.11" font-family="Times,serif" font-size="14.00">아니오</text>
</g>
<!-- are_you_using_flux -->
<g id="node5" class="node"><title>are_you_using_flux</title>
<polygon fill="none" stroke="black" points="463,-2439.73 279.079,-2382 463,-2324.27 646.921,-2382 463,-2439.73"/>
<text text-anchor="middle" x="463" y="-2395.73" font-family="Times,serif" font-size="14.00">Flux 라이브러리</text>
<text text-anchor="middle" x="463" y="-2379.11" font-family="Times,serif" font-size="14.00"> &#160;&#160;&#160;(혹은 Redux)를 &#160;사용하고</text>
<text text-anchor="middle" x="463" y="-2362.49" font-family="Times,serif" font-size="14.00"> &#160;&#160;&#160;있습니까?</text>
</g>
<!-- boilerplates_dont_teach&#45;&gt;are_you_using_flux -->
<g id="edge4" class="edge"><title>boilerplates_dont_teach&#45;&gt;are_you_using_flux</title>
<path fill="none" stroke="black" d="M358.3,-2477.75C376.272,-2461.48 393.547,-2445.85 408.703,-2432.14"/>
<polygon fill="black" stroke="black" points="411.362,-2434.45 416.428,-2425.14 406.665,-2429.26 411.362,-2434.45"/>
</g>
<!-- steal_from_boilerplates&#45;&gt;are_you_using_flux -->
<g id="edge5" class="edge"><title>steal_from_boilerplates&#45;&gt;are_you_using_flux</title>
<path fill="none" stroke="black" d="M578.903,-2551.2C554.07,-2515.16 524.203,-2471.82 501.008,-2438.16"/>
<polygon fill="black" stroke="black" points="503.818,-2436.07 495.262,-2429.82 498.054,-2440.04 503.818,-2436.07"/>
</g>
<!-- is_too_much_flux -->
<g id="node6" class="node"><title>is_too_much_flux</title>
<polygon fill="none" stroke="black" points="335,-2252.73 158.704,-2195 335,-2137.27 511.296,-2195 335,-2252.73"/>
<text text-anchor="middle" x="335" y="-2208.73" font-family="Times,serif" font-size="14.00">명백한 이득없이</text>
<text text-anchor="middle" x="335" y="-2192.11" font-family="Times,serif" font-size="14.00"> &#160;&#160;&#160;보일러 플레이트를 많이</text>
<text text-anchor="middle" x="335" y="-2175.49" font-family="Times,serif" font-size="14.00"> &#160;&#160;&#160;사용해야 합니까?</text>
</g>
<!-- are_you_using_flux&#45;&gt;is_too_much_flux -->
<g id="edge6" class="edge"><title>are_you_using_flux&#45;&gt;is_too_much_flux</title>
<path fill="none" stroke="black" d="M430.7,-2334.32C413.124,-2308.91 391.281,-2277.34 372.903,-2250.78"/>
<polygon fill="black" stroke="black" points="375.636,-2248.58 367.068,-2242.35 369.879,-2252.56 375.636,-2248.58"/>
<text text-anchor="middle" x="417.993" y="-2294.11" font-family="Times,serif" font-size="14.00">네</text>
</g>
<!-- is_not_enough_flux -->
<g id="node7" class="node"><title>is_not_enough_flux</title>
<polygon fill="none" stroke="black" points="812,-2269.48 530.848,-2195 812,-2120.52 1093.15,-2195 812,-2269.48"/>
<text text-anchor="middle" x="812" y="-2217.04" font-family="Times,serif" font-size="14.00">종종 소스의 버그를 만들어내는</text>
<text text-anchor="middle" x="812" y="-2200.42" font-family="Times,serif" font-size="14.00"> &#160;&#160;&#160;state가 많이 관리되는 컴포넌트가</text>
<text text-anchor="middle" x="812" y="-2183.8" font-family="Times,serif" font-size="14.00"> &#160;&#160;&#160;컴포넌트 계층 구조의 상단에서 자리잡고</text>
<text text-anchor="middle" x="812" y="-2167.18" font-family="Times,serif" font-size="14.00"> &#160;&#160;&#160;있습니까?</text>
</g>
<!-- are_you_using_flux&#45;&gt;is_not_enough_flux -->
<g id="edge7" class="edge"><title>are_you_using_flux&#45;&gt;is_not_enough_flux</title>
<path fill="none" stroke="black" d="M530.291,-2345.33C581.338,-2318.27 652.369,-2280.62 710.334,-2249.89"/>
<polygon fill="black" stroke="black" points="712.323,-2252.8 719.519,-2245.02 709.045,-2246.61 712.323,-2252.8"/>
<text text-anchor="middle" x="658.98" y="-2294.11" font-family="Times,serif" font-size="14.00">아니오</text>
</g>
<!-- remove_flux -->
<g id="node8" class="node"><title>remove_flux</title>
<polygon fill="none" stroke="black" points="486.113,-2066.49 189.887,-2066.49 189.887,-1991.51 486.113,-1991.51 486.113,-2066.49"/>
<text text-anchor="middle" x="338" y="-2051.04" font-family="Times,serif" font-size="14.00">Flux 라이브러리를 제거하세요.</text>
<text text-anchor="middle" x="338" y="-2034.42" font-family="Times,serif" font-size="14.00"> &#160;&#160;&#160;공식 사이트 문서의 Thinking in React를</text>
<text text-anchor="middle" x="338" y="-2017.8" font-family="Times,serif" font-size="14.00"> &#160;&#160;&#160;읽어보고 순수 React형태의 어플리케이션을</text>
<text text-anchor="middle" x="338" y="-2001.18" font-family="Times,serif" font-size="14.00"> &#160;&#160;&#160;구조화하는데 좋은 감각을 가지세요.</text>
</g>
<!-- is_too_much_flux&#45;&gt;remove_flux -->
<g id="edge8" class="edge"><title>is_too_much_flux&#45;&gt;remove_flux</title>
<path fill="none" stroke="black" d="M336.032,-2137.56C336.396,-2117.7 336.8,-2095.62 337.146,-2076.66"/>
<polygon fill="black" stroke="black" points="340.649,-2076.55 337.333,-2066.48 333.65,-2076.42 340.649,-2076.55"/>
<text text-anchor="middle" x="343.993" y="-2090.11" font-family="Times,serif" font-size="14.00">네</text>
</g>
<!-- are_you_using_bundler -->
<g id="node9" class="node"><title>are_you_using_bundler</title>
<polygon fill="none" stroke="black" points="561,-1954.49 307.987,-1913 561,-1871.51 814.013,-1913 561,-1954.49"/>
<text text-anchor="middle" x="561" y="-1918.42" font-family="Times,serif" font-size="14.00">Webpack이나 Browserify 같은</text>
<text text-anchor="middle" x="561" y="-1901.8" font-family="Times,serif" font-size="14.00"> &#160;&#160;&#160;자바스크립트 번들러를 사용하나요?</text>
</g>
<!-- is_too_much_flux&#45;&gt;are_you_using_bundler -->
<g id="edge9" class="edge"><title>is_too_much_flux&#45;&gt;are_you_using_bundler</title>
<path fill="none" stroke="black" d="M395.032,-2156.59C427.965,-2133.67 467.557,-2101.89 495,-2066 518.654,-2035.07 535.745,-1994.35 546.601,-1962.85"/>
<polygon fill="black" stroke="black" points="550.053,-1963.56 549.907,-1952.97 543.415,-1961.34 550.053,-1963.56"/>
<text text-anchor="middle" x="555.98" y="-2026.11" font-family="Times,serif" font-size="14.00">아니오</text>
</g>
<!-- is_not_enough_flux&#45;&gt;are_you_using_bundler -->
<g id="edge11" class="edge"><title>is_not_enough_flux&#45;&gt;are_you_using_bundler</title>
<path fill="none" stroke="black" d="M708.992,-2147.74C673.041,-2127.2 635.187,-2099.89 609.041,-2066 596.471,-2049.71 582.293,-2001.05 572.618,-1963.13"/>
<polygon fill="black" stroke="black" points="575.967,-1962.1 570.136,-1953.25 569.178,-1963.8 575.967,-1962.1"/>
<text text-anchor="middle" x="630.98" y="-2026.11" font-family="Times,serif" font-size="14.00">아니오</text>
</g>
<!-- add_flux -->
<g id="node10" class="node"><title>add_flux</title>
<polygon fill="none" stroke="black" points="959.44,-2057.87 660.56,-2057.87 660.56,-2000.13 959.44,-2000.13 959.44,-2057.87"/>
<text text-anchor="middle" x="810" y="-2042.73" font-family="Times,serif" font-size="14.00">Flux 라이브러리 추가를 고려해 보세요.</text>
<text text-anchor="middle" x="810" y="-2026.11" font-family="Times,serif" font-size="14.00"> &#160;&#160;&#160;다량의 컴포넌트들 간에 state를 외부화 하고</text>
<text text-anchor="middle" x="810" y="-2009.49" font-family="Times,serif" font-size="14.00"> &#160;&#160;&#160;지속적으로 업데이트 하는데 도움이 됩니다.</text>
</g>
<!-- is_not_enough_flux&#45;&gt;add_flux -->
<g id="edge10" class="edge"><title>is_not_enough_flux&#45;&gt;add_flux</title>
<path fill="none" stroke="black" d="M811.105,-2120.63C810.886,-2102.62 810.659,-2084.04 810.469,-2068.43"/>
<polygon fill="black" stroke="black" points="813.965,-2068.1 810.343,-2058.14 806.965,-2068.18 813.965,-2068.1"/>
<text text-anchor="middle" x="816.993" y="-2090.11" font-family="Times,serif" font-size="14.00">네</text>
</g>
<!-- remove_flux&#45;&gt;are_you_using_bundler -->
<g id="edge13" class="edge"><title>remove_flux&#45;&gt;are_you_using_bundler</title>
<path fill="none" stroke="black" d="M409.172,-1991.62C435.625,-1978.09 465.578,-1962.78 491.848,-1949.35"/>
<polygon fill="black" stroke="black" points="493.663,-1952.35 500.974,-1944.69 490.477,-1946.12 493.663,-1952.35"/>
</g>
<!-- are_you_working_on_production_app_with_bundler -->
<g id="node11" class="node"><title>are_you_working_on_production_app_with_bundler</title>
<polygon fill="none" stroke="black" points="467,-1818.49 304.864,-1777 467,-1735.51 629.136,-1777 467,-1818.49"/>
<text text-anchor="middle" x="467" y="-1782.42" font-family="Times,serif" font-size="14.00">제품화 단계의</text>
<text text-anchor="middle" x="467" y="-1765.8" font-family="Times,serif" font-size="14.00"> &#160;&#160;&#160;어플리케이션입니까?</text>
</g>
<!-- are_you_using_bundler&#45;&gt;are_you_working_on_production_app_with_bundler -->
<g id="edge14" class="edge"><title>are_you_using_bundler&#45;&gt;are_you_working_on_production_app_with_bundler</title>
<path fill="none" stroke="black" d="M535.314,-1875.38C523.542,-1858.6 509.507,-1838.59 497.229,-1821.09"/>
<polygon fill="black" stroke="black" points="499.968,-1818.9 491.36,-1812.73 494.238,-1822.92 499.968,-1818.9"/>
<text text-anchor="middle" x="526.993" y="-1842.11" font-family="Times,serif" font-size="14.00">네</text>
</g>
<!-- are_you_working_on_production_app_without_bundler -->
<g id="node12" class="node"><title>are_you_working_on_production_app_without_bundler</title>
<polygon fill="none" stroke="black" points="809,-1818.49 646.864,-1777 809,-1735.51 971.136,-1777 809,-1818.49"/>
<text text-anchor="middle" x="809" y="-1782.42" font-family="Times,serif" font-size="14.00">제품화 단계의</text>
<text text-anchor="middle" x="809" y="-1765.8" font-family="Times,serif" font-size="14.00"> &#160;&#160;&#160;어플리케이션입니까?</text>
</g>
<!-- are_you_using_bundler&#45;&gt;are_you_working_on_production_app_without_bundler -->
<g id="edge15" class="edge"><title>are_you_using_bundler&#45;&gt;are_you_working_on_production_app_without_bundler</title>
<path fill="none" stroke="black" d="M618.52,-1880.92C657.68,-1859.76 709.401,-1831.82 749.065,-1810.38"/>
<polygon fill="black" stroke="black" points="750.969,-1813.33 758.103,-1805.5 747.641,-1807.18 750.969,-1813.33"/>
<text text-anchor="middle" x="719.98" y="-1842.11" font-family="Times,serif" font-size="14.00">아니오</text>
</g>
<!-- add_flux&#45;&gt;are_you_using_bundler -->
<g id="edge12" class="edge"><title>add_flux&#45;&gt;are_you_using_bundler</title>
<path fill="none" stroke="black" d="M749.088,-2000.11C714.989,-1984.5 672.191,-1964.91 636.038,-1948.35"/>
<polygon fill="black" stroke="black" points="637.065,-1944.98 626.516,-1944 634.151,-1951.34 637.065,-1944.98"/>
</g>
<!-- do_you_know_es2015 -->
<g id="node13" class="node"><title>do_you_know_es2015</title>
<polygon fill="none" stroke="black" points="724,-1521.73 517.931,-1464 724,-1406.27 930.069,-1464 724,-1521.73"/>
<text text-anchor="middle" x="724" y="-1477.73" font-family="Times,serif" font-size="14.00">ES2015의 기능들을</text>
<text text-anchor="middle" x="724" y="-1461.11" font-family="Times,serif" font-size="14.00"> &#160;&#160;&#160;사용하는데 익숙합니까?</text>
<text text-anchor="middle" x="724" y="-1444.49" font-family="Times,serif" font-size="14.00"> &#160;&#160;&#160;(classes나 fat arrow같은 기능)</text>
</g>
<!-- are_you_working_on_production_app_with_bundler&#45;&gt;do_you_know_es2015 -->
<g id="edge16" class="edge"><title>are_you_working_on_production_app_with_bundler&#45;&gt;do_you_know_es2015</title>
<path fill="none" stroke="black" d="M444.429,-1741.04C417.942,-1695.14 382.359,-1614.05 422.014,-1560 443.246,-1531.06 521.417,-1506.92 592.901,-1490.22"/>
<polygon fill="black" stroke="black" points="593.976,-1493.57 602.937,-1487.91 592.407,-1486.74 593.976,-1493.57"/>
<text text-anchor="middle" x="429.993" y="-1618.11" font-family="Times,serif" font-size="14.00">네</text>
</g>
<!-- remove_bundler -->
<g id="node14" class="node"><title>remove_bundler</title>
<polygon fill="none" stroke="black" points="740.316,-1681.73 445.684,-1681.73 445.684,-1560.27 740.316,-1560.27 740.316,-1681.73"/>
<text text-anchor="middle" x="593" y="-1666.67" font-family="Times,serif" font-size="14.00">React를 그저 배우는 단계에서는</text>
<text text-anchor="middle" x="593" y="-1650.04" font-family="Times,serif" font-size="14.00"> &#160;&#160;&#160;번들러를 사용할 필요는 없습니다.</text>
<text text-anchor="middle" x="593" y="-1633.42" font-family="Times,serif" font-size="14.00"> &#160;&#160;&#160;https://github.com/jarsbe/react&#45;simple</text>
<text text-anchor="middle" x="593" y="-1619.42" font-family="Times,serif" font-size="14.00"> &#160;&#160;&#160;프로젝트를 내려받아서 빌드 단계없이 시작</text>
<text text-anchor="middle" x="593" y="-1602.8" font-family="Times,serif" font-size="14.00"> &#160;&#160;&#160;하세요.React가 익숙해지고 모듈 시스템과</text>
<text text-anchor="middle" x="593" y="-1586.18" font-family="Times,serif" font-size="14.00"> &#160;&#160;&#160;다른 번들러를 알고 싶어질 때까지는</text>
<text text-anchor="middle" x="593" y="-1569.56" font-family="Times,serif" font-size="14.00"> &#160;&#160;&#160;&lt;script&gt; 태그를 사용하세요.</text>
</g>
<!-- are_you_working_on_production_app_with_bundler&#45;&gt;remove_bundler -->
<g id="edge17" class="edge"><title>are_you_working_on_production_app_with_bundler&#45;&gt;remove_bundler</title>
<path fill="none" stroke="black" d="M494.651,-1742.2C507.329,-1726.71 522.829,-1707.76 537.742,-1689.54"/>
<polygon fill="black" stroke="black" points="540.464,-1691.74 544.088,-1681.78 535.047,-1687.3 540.464,-1691.74"/>
<text text-anchor="middle" x="547.98" y="-1706.11" font-family="Times,serif" font-size="14.00">아니오</text>
</g>
<!-- are_you_working_on_production_app_without_bundler&#45;&gt;do_you_know_es2015 -->
<g id="edge19" class="edge"><title>are_you_working_on_production_app_without_bundler&#45;&gt;do_you_know_es2015</title>
<path fill="none" stroke="black" d="M798.577,-1737.87C784.249,-1685.44 758.292,-1590.47 741.097,-1527.56"/>
<polygon fill="black" stroke="black" points="744.429,-1526.47 738.416,-1517.75 737.676,-1528.31 744.429,-1526.47"/>
<text text-anchor="middle" x="803.98" y="-1618.11" font-family="Times,serif" font-size="14.00">아니오</text>
</g>
<!-- add_bundler -->
<g id="node15" class="node"><title>add_bundler</title>
<polygon fill="none" stroke="black" points="1118.33,-1674.73 837.674,-1674.73 837.674,-1567.27 1118.33,-1567.27 1118.33,-1674.73"/>
<text text-anchor="middle" x="978" y="-1659.67" font-family="Times,serif" font-size="14.00">의존성을 관리하고 효과적으로 소스코드를</text>
<text text-anchor="middle" x="978" y="-1643.04" font-family="Times,serif" font-size="14.00"> &#160;&#160;&#160;유지하기 위해 빌드 단계에 번들러를</text>
<text text-anchor="middle" x="978" y="-1626.42" font-family="Times,serif" font-size="14.00"> &#160;&#160;&#160;추가하세요.</text>
<text text-anchor="middle" x="978" y="-1609.8" font-family="Times,serif" font-size="14.00"> &#160;&#160;&#160;얼마나 잘하고 있는지 측정하기 위해서는</text>
<text text-anchor="middle" x="978" y="-1593.18" font-family="Times,serif" font-size="14.00"> &#160;&#160;&#160;Google Page Speed 를 사용해 보세요.</text>
<text text-anchor="middle" x="978" y="-1576.56" font-family="Times,serif" font-size="14.00"> &#160;&#160;&#160;minify와 envify를 쓰는 것을 잊지마세요.</text>
</g>
<!-- are_you_working_on_production_app_without_bundler&#45;&gt;add_bundler -->
<g id="edge18" class="edge"><title>are_you_working_on_production_app_without_bundler&#45;&gt;add_bundler</title>
<path fill="none" stroke="black" d="M844.017,-1744.09C863.82,-1726.05 889.223,-1702.9 912.574,-1681.62"/>
<polygon fill="black" stroke="black" points="915.04,-1684.11 920.074,-1674.78 910.325,-1678.93 915.04,-1684.11"/>
<text text-anchor="middle" x="894.993" y="-1706.11" font-family="Times,serif" font-size="14.00">네</text>
</g>
<!-- use_es5 -->
<g id="node16" class="node"><title>use_es5</title>
<polygon fill="none" stroke="black" points="834.451,-1218.22 549.549,-1218.22 549.549,-1029.78 834.451,-1029.78 834.451,-1218.22"/>
<text text-anchor="middle" x="692" y="-1202.91" font-family="Times,serif" font-size="14.00">ES2015는 보류하세요.</text>
<text text-anchor="middle" x="692" y="-1186.29" font-family="Times,serif" font-size="14.00"> &#160;&#160;&#160;React를 배우기 위해 필수는 아닙니다.</text>
<text text-anchor="middle" x="692" y="-1169.67" font-family="Times,serif" font-size="14.00"> &#160;&#160;&#160;써드파티 라이브러리들이 종종 ES2015</text>
<text text-anchor="middle" x="692" y="-1153.04" font-family="Times,serif" font-size="14.00"> &#160;&#160;&#160;문법을 그들의 코드에 사용하고 있습니다.</text>
<text text-anchor="middle" x="692" y="-1136.42" font-family="Times,serif" font-size="14.00"> &#160;&#160;&#160;하지만 당신이 React만 배우려고 할 땐</text>
<text text-anchor="middle" x="692" y="-1119.8" font-family="Times,serif" font-size="14.00"> &#160;&#160;&#160;써드파티 라이브러리가 필요 없습니다.</text>
<text text-anchor="middle" x="692" y="-1103.18" font-family="Times,serif" font-size="14.00"> &#160;&#160;&#160;Js를 더 공부해야겠다고 느껴 질 때면</text>
<text text-anchor="middle" x="692" y="-1086.56" font-family="Times,serif" font-size="14.00"> &#160;&#160;&#160;https://leanpub.com/understandinges6/read</text>
<text text-anchor="middle" x="692" y="-1072.56" font-family="Times,serif" font-size="14.00"> &#160;&#160;&#160;는 매우 유용한 가이드가 됩니다.</text>
<text text-anchor="middle" x="692" y="-1055.93" font-family="Times,serif" font-size="14.00"> &#160;&#160;&#160;http://babeljs.io/repl 를 통해서</text>
<text text-anchor="middle" x="692" y="-1039.31" font-family="Times,serif" font-size="14.00"> &#160;&#160;&#160;실습해 보세요.</text>
</g>
<!-- do_you_know_es2015&#45;&gt;use_es5 -->
<g id="edge22" class="edge"><title>do_you_know_es2015&#45;&gt;use_es5</title>
<path fill="none" stroke="black" d="M717.193,-1407.99C715.082,-1390.14 712.831,-1370.24 711,-1352 706.948,-1311.63 703.093,-1267.17 699.927,-1228.37"/>
<polygon fill="black" stroke="black" points="703.392,-1227.8 699.095,-1218.11 696.415,-1228.36 703.392,-1227.8"/>
<text text-anchor="middle" x="734.98" y="-1376.11" font-family="Times,serif" font-size="14.00">아니오</text>
</g>
<!-- are_you_using_dangerous_features -->
<g id="node17" class="node"><title>are_you_using_dangerous_features</title>
<polygon fill="none" stroke="black" points="977,-1351.73 720.737,-1294 977,-1236.27 1233.26,-1294 977,-1351.73"/>
<text text-anchor="middle" x="977" y="-1307.73" font-family="Times,serif" font-size="14.00">아직 ES2015에도 포함되지 않은</text>
<text text-anchor="middle" x="977" y="-1291.11" font-family="Times,serif" font-size="14.00"> &#160;&#160;&#160;실험적인 기능들을 사용하고 있나요?</text>
<text text-anchor="middle" x="977" y="-1274.49" font-family="Times,serif" font-size="14.00"> &#160;&#160;&#160;(decorators가 그 예입니다.)</text>
</g>
<!-- do_you_know_es2015&#45;&gt;are_you_using_dangerous_features -->
<g id="edge23" class="edge"><title>do_you_know_es2015&#45;&gt;are_you_using_dangerous_features</title>
<path fill="none" stroke="black" d="M784.278,-1422.97C820.287,-1399.06 866.264,-1368.53 904.28,-1343.29"/>
<polygon fill="black" stroke="black" points="906.366,-1346.1 912.761,-1337.66 902.494,-1340.27 906.366,-1346.1"/>
<text text-anchor="middle" x="864.993" y="-1376.11" font-family="Times,serif" font-size="14.00">네</text>
</g>
<!-- remove_bundler&#45;&gt;do_you_know_es2015 -->
<g id="edge21" class="edge"><title>remove_bundler&#45;&gt;do_you_know_es2015</title>
<path fill="none" stroke="black" d="M643.648,-1560.07C655.083,-1546.54 667.156,-1532.26 678.371,-1518.99"/>
<polygon fill="black" stroke="black" points="681.082,-1521.2 684.863,-1511.31 675.735,-1516.68 681.082,-1521.2"/>
</g>
<!-- add_bundler&#45;&gt;do_you_know_es2015 -->
<g id="edge20" class="edge"><title>add_bundler&#45;&gt;do_you_know_es2015</title>
<path fill="none" stroke="black" d="M891.298,-1567.09C860.429,-1548.25 826.015,-1527.25 796.465,-1509.22"/>
<polygon fill="black" stroke="black" points="798.224,-1506.19 787.864,-1503.97 794.577,-1512.17 798.224,-1506.19"/>
</g>
<!-- do_you_update_packages_asap -->
<g id="node18" class="node"><title>do_you_update_packages_asap</title>
<polygon fill="none" stroke="black" points="911,-748.491 626.118,-707 911,-665.509 1195.88,-707 911,-748.491"/>
<text text-anchor="middle" x="911" y="-712.422" font-family="Times,serif" font-size="14.00">의존성이 있는 모듈들의 새 메이저 버전들이</text>
<text text-anchor="middle" x="911" y="-695.8" font-family="Times,serif" font-size="14.00"> &#160;&#160;&#160;나오면 적용합니까?</text>
</g>
<!-- use_es5&#45;&gt;do_you_update_packages_asap -->
<g id="edge24" class="edge"><title>use_es5&#45;&gt;do_you_update_packages_asap</title>
<path fill="none" stroke="black" d="M714.941,-1029.64C736.977,-953.307 775.898,-845.395 836,-766 840.82,-759.633 846.507,-753.596 852.558,-747.993"/>
<polygon fill="black" stroke="black" points="855.169,-750.359 860.382,-741.135 850.555,-745.095 855.169,-750.359"/>
</g>
<!-- are_you_using_dangerous_features&#45;&gt;do_you_update_packages_asap -->
<g id="edge26" class="edge"><title>are_you_using_dangerous_features&#45;&gt;do_you_update_packages_asap</title>
<path fill="none" stroke="black" d="M950.872,-1242.11C924.198,-1187.06 884.566,-1095.89 869,-1012 859.594,-961.31 863.346,-947.245 869,-896 874.286,-848.092 886.932,-794.541 896.975,-756.885"/>
<polygon fill="black" stroke="black" points="900.366,-757.753 899.598,-747.186 893.609,-755.926 900.366,-757.753"/>
<text text-anchor="middle" x="893.98" y="-866.111" font-family="Times,serif" font-size="14.00">아니오</text>
</g>
<!-- can_you_spend_days_on_your_tooling -->
<g id="node19" class="node"><title>can_you_spend_days_on_your_tooling</title>
<polygon fill="none" stroke="black" points="1183,-1011.73 877.798,-954 1183,-896.265 1488.2,-954 1183,-1011.73"/>
<text text-anchor="middle" x="1183" y="-967.734" font-family="Times,serif" font-size="14.00">당신은 버그, 호환성 문제,</text>
<text text-anchor="middle" x="1183" y="-951.111" font-family="Times,serif" font-size="14.00"> &#160;&#160;&#160;표준의 변경에 따라 매주마다 당신의</text>
<text text-anchor="middle" x="1183" y="-934.489" font-family="Times,serif" font-size="14.00"> &#160;&#160;&#160;도구들을 고치는데 시간을 보낼 수 있습니까?</text>
</g>
<!-- are_you_using_dangerous_features&#45;&gt;can_you_spend_days_on_your_tooling -->
<g id="edge25" class="edge"><title>are_you_using_dangerous_features&#45;&gt;can_you_spend_days_on_your_tooling</title>
<path fill="none" stroke="black" d="M1007.62,-1242.76C1044.66,-1181.99 1106.94,-1079.79 1146.46,-1014.96"/>
<polygon fill="black" stroke="black" points="1149.66,-1016.43 1151.88,-1006.07 1143.68,-1012.78 1149.66,-1016.43"/>
<text text-anchor="middle" x="1139.99" y="-1121.11" font-family="Times,serif" font-size="14.00">네</text>
</g>
<!-- give_it_two_months -->
<g id="node21" class="node"><title>give_it_two_months</title>
<polygon fill="none" stroke="black" points="1008,-612.224 621.996,-612.224 621.996,-423.776 1008,-423.776 1008,-612.224"/>
<text text-anchor="middle" x="815" y="-596.912" font-family="Times,serif" font-size="14.00">매 릴리즈전에 충실히 테스트된 React에 대해 이야기</text>
<text text-anchor="middle" x="815" y="-580.29" font-family="Times,serif" font-size="14.00"> &#160;&#160;&#160;하려는 것은 아니지만, 패키지 업데이트의 속도를 늦추는</text>
<text text-anchor="middle" x="815" y="-563.667" font-family="Times,serif" font-size="14.00"> &#160;&#160;&#160;것을 고려해 보십시오.</text>
<text text-anchor="middle" x="815" y="-547.045" font-family="Times,serif" font-size="14.00"> &#160;&#160;&#160;의존성이 있는 모듈의 새 버전을 업데이트할 수 있지만</text>
<text text-anchor="middle" x="815" y="-530.422" font-family="Times,serif" font-size="14.00"> &#160;&#160;&#160;그 모듈의 커뮤니티에서 버전이 안정화 될때까지 몇달은</text>
<text text-anchor="middle" x="815" y="-513.8" font-family="Times,serif" font-size="14.00"> &#160;&#160;&#160;브랜치에 놔두는 것이 최선입니다.</text>
<text text-anchor="middle" x="815" y="-497.178" font-family="Times,serif" font-size="14.00"> &#160;&#160;&#160;트렌드를 못 쫓아갈까봐 두려워하지 마세요.</text>
<text text-anchor="middle" x="815" y="-480.555" font-family="Times,serif" font-size="14.00"> &#160;&#160;&#160;오래된 문서를 찾을때 깃헙의 태그릴리즈를 체크하는 것도</text>
<text text-anchor="middle" x="815" y="-463.933" font-family="Times,serif" font-size="14.00"> &#160;&#160;&#160;잊지 마십시오. 예를 들면</text>
<text text-anchor="middle" x="815" y="-447.31" font-family="Times,serif" font-size="14.00"> &#160;&#160;&#160;https://github.com/reactjs/react&#45;router/tree/0.13.x/doc</text>
<text text-anchor="middle" x="815" y="-433.31" font-family="Times,serif" font-size="14.00"> &#160;&#160;&#160;같은 문서.</text>
</g>
<!-- do_you_update_packages_asap&#45;&gt;give_it_two_months -->
<g id="edge30" class="edge"><title>do_you_update_packages_asap&#45;&gt;give_it_two_months</title>
<path fill="none" stroke="black" d="M891.573,-668.158C884.546,-654.471 876.235,-638.282 867.724,-621.703"/>
<polygon fill="black" stroke="black" points="870.663,-619.763 862.982,-612.466 864.436,-622.96 870.663,-619.763"/>
<text text-anchor="middle" x="885.993" y="-636.111" font-family="Times,serif" font-size="14.00">네</text>
</g>
<!-- consider_updating_react -->
<g id="node22" class="node"><title>consider_updating_react</title>
<polygon fill="none" stroke="black" points="1304.2,-605.225 1025.8,-605.225 1025.8,-430.775 1304.2,-430.775 1304.2,-605.225"/>
<text text-anchor="middle" x="1165" y="-589.912" font-family="Times,serif" font-size="14.00">좋은 징조입니다.</text>
<text text-anchor="middle" x="1165" y="-573.29" font-family="Times,serif" font-size="14.00"> &#160;&#160;&#160;어쨌거나, 새로운 React 버전이 나오면</text>
<text text-anchor="middle" x="1165" y="-556.667" font-family="Times,serif" font-size="14.00"> &#160;&#160;&#160;적용해 보기를 권면합니다.(브랜치에서!)</text>
<text text-anchor="middle" x="1165" y="-540.045" font-family="Times,serif" font-size="14.00"> &#160;&#160;&#160;많은 커뮤니티 패키지들과는 달리</text>
<text text-anchor="middle" x="1165" y="-523.422" font-family="Times,serif" font-size="14.00"> &#160;&#160;&#160;Facebook에서 충실하게 테스트 되어</text>
<text text-anchor="middle" x="1165" y="-506.8" font-family="Times,serif" font-size="14.00"> &#160;&#160;&#160;나옵니다.</text>
<text text-anchor="middle" x="1165" y="-490.178" font-family="Times,serif" font-size="14.00"> &#160;&#160;&#160;릴리즈 노트는 충실하게 보셔야 합니다.</text>
<text text-anchor="middle" x="1165" y="-473.555" font-family="Times,serif" font-size="14.00"> &#160;&#160;&#160;새 버전을 적용하기 위한 마이그레이션</text>
<text text-anchor="middle" x="1165" y="-456.933" font-family="Times,serif" font-size="14.00"> &#160;&#160;&#160;절차를 자동화한 codemods의 링크가</text>
<text text-anchor="middle" x="1165" y="-440.31" font-family="Times,serif" font-size="14.00"> &#160;&#160;&#160;담겨져 있습니다.</text>
</g>
<!-- do_you_update_packages_asap&#45;&gt;consider_updating_react -->
<g id="edge31" class="edge"><title>do_you_update_packages_asap&#45;&gt;consider_updating_react</title>
<path fill="none" stroke="black" d="M956.997,-672.136C980.388,-654.915 1010.07,-633.062 1039.64,-611.296"/>
<polygon fill="black" stroke="black" points="1041.99,-613.91 1047.97,-605.163 1037.84,-608.273 1041.99,-613.91"/>
<text text-anchor="middle" x="1027.98" y="-636.111" font-family="Times,serif" font-size="14.00">아니오</text>
</g>
<!-- can_you_spend_days_on_your_tooling&#45;&gt;do_you_update_packages_asap -->
<g id="edge27" class="edge"><title>can_you_spend_days_on_your_tooling&#45;&gt;do_you_update_packages_asap</title>
<path fill="none" stroke="black" d="M1097.8,-912.094C1064.63,-893.612 1027.77,-869.679 999.014,-842 972.888,-816.857 950.56,-782.603 934.93,-755.021"/>
<polygon fill="black" stroke="black" points="937.805,-752.99 929.891,-745.947 931.686,-756.388 937.805,-752.99"/>
<text text-anchor="middle" x="1005.99" y="-811.111" font-family="Times,serif" font-size="14.00">네</text>
</g>
<!-- stick_to_es2015 -->
<g id="node20" class="node"><title>stick_to_es2015</title>
<polygon fill="none" stroke="black" points="1244.05,-841.745 1021.95,-841.745 1021.95,-786.255 1244.05,-786.255 1244.05,-841.745"/>
<text text-anchor="middle" x="1133" y="-826.422" font-family="Times,serif" font-size="14.00">ES2015, JSX, object spread operator</text>
<text text-anchor="middle" x="1133" y="-812.422" font-family="Times,serif" font-size="14.00"> &#160;&#160;&#160;등 사용하기 용이한 기능에</text>
<text text-anchor="middle" x="1133" y="-795.8" font-family="Times,serif" font-size="14.00"> &#160;&#160;&#160;충실하세요.</text>
</g>
<!-- can_you_spend_days_on_your_tooling&#45;&gt;stick_to_es2015 -->
<g id="edge28" class="edge"><title>can_you_spend_days_on_your_tooling&#45;&gt;stick_to_es2015</title>
<path fill="none" stroke="black" d="M1163.67,-899.646C1157.86,-883.623 1151.63,-866.413 1146.31,-851.722"/>
<polygon fill="black" stroke="black" points="1149.48,-850.209 1142.78,-842 1142.9,-852.594 1149.48,-850.209"/>
<text text-anchor="middle" x="1175.98" y="-866.111" font-family="Times,serif" font-size="14.00">아니오</text>
</g>
<!-- stick_to_es2015&#45;&gt;do_you_update_packages_asap -->
<g id="edge29" class="edge"><title>stick_to_es2015&#45;&gt;do_you_update_packages_asap</title>
<path fill="none" stroke="black" d="M1076.69,-786.368C1049.1,-773.319 1015.5,-757.427 985.79,-743.374"/>
<polygon fill="black" stroke="black" points="987.241,-740.188 976.704,-739.076 984.248,-746.516 987.241,-740.188"/>
</g>
<!-- are_you_still_sad -->
<g id="node23" class="node"><title>are_you_still_sad</title>
<polygon fill="none" stroke="black" points="1030,-386 927.747,-368 1030,-350 1132.25,-368 1030,-386"/>
<text text-anchor="middle" x="1030" y="-363.8" font-family="Times,serif" font-size="14.00">Are you still sad?</text>
</g>
<!-- give_it_two_months&#45;&gt;are_you_still_sad -->
<g id="edge32" class="edge"><title>give_it_two_months&#45;&gt;are_you_still_sad</title>
<path fill="none" stroke="black" d="M950.553,-423.689C969.813,-410.431 987.781,-398.062 1001.74,-388.453"/>
<polygon fill="black" stroke="black" points="1004.06,-391.108 1010.31,-382.555 1000.09,-385.342 1004.06,-391.108"/>
</g>
<!-- consider_updating_react&#45;&gt;are_you_still_sad -->
<g id="edge33" class="edge"><title>consider_updating_react&#45;&gt;are_you_still_sad</title>
<path fill="none" stroke="black" d="M1086.08,-430.48C1073.02,-416.164 1060.55,-402.492 1050.7,-391.691"/>
<polygon fill="black" stroke="black" points="1053.03,-389.059 1043.71,-384.029 1047.86,-393.776 1053.03,-389.059"/>
</g>
<!-- rant -->
<g id="node24" class="node"><title>rant</title>
<polygon fill="none" stroke="black" points="1039.08,-295.735 750.924,-295.735 750.924,-188.265 1039.08,-188.265 1039.08,-295.735"/>
<text text-anchor="middle" x="895" y="-280.667" font-family="Times,serif" font-size="14.00">문제가 생기면 건설적인 블로그를</text>
<text text-anchor="middle" x="895" y="-264.045" font-family="Times,serif" font-size="14.00"> &#160;&#160;&#160;작성하세요. 인신공격은 삼가.</text>
<text text-anchor="middle" x="895" y="-247.422" font-family="Times,serif" font-size="14.00"> &#160;&#160;&#160;정중하게 말이죠. 문제 해결을 위해</text>
<text text-anchor="middle" x="895" y="-230.8" font-family="Times,serif" font-size="14.00"> &#160;&#160;&#160;커뮤니티에 참여하세요. Ember 같은</text>
<text text-anchor="middle" x="895" y="-214.178" font-family="Times,serif" font-size="14.00"> &#160;&#160;&#160;당신에게 맞는 다른 길을 찾아 보는 방법도</text>
<text text-anchor="middle" x="895" y="-197.555" font-family="Times,serif" font-size="14.00"> &#160;&#160;&#160;있습니다.</text>
</g>
<!-- are_you_still_sad&#45;&gt;rant -->
<g id="edge34" class="edge"><title>are_you_still_sad&#45;&gt;rant</title>
<path fill="none" stroke="black" d="M1014.25,-352.533C1000.68,-340.072 980.147,-321.209 959.921,-302.631"/>
<polygon fill="black" stroke="black" points="962.229,-299.998 952.496,-295.811 957.493,-305.154 962.229,-299.998"/>
<text text-anchor="middle" x="996.993" y="-320.111" font-family="Times,serif" font-size="14.00">네</text>
</g>
<!-- happy -->
<g id="node25" class="node"><title>happy</title>
<polygon fill="none" stroke="black" points="1152.34,-149.746 893.657,-149.746 893.657,-108.254 1152.34,-108.254 1152.34,-149.746"/>
<text text-anchor="middle" x="1023" y="-134.422" font-family="Times,serif" font-size="14.00">React 땜에 다시 행복해졌습니다!</text>
<text text-anchor="middle" x="1023" y="-117.8" font-family="Times,serif" font-size="14.00"> &#160;&#160;&#160;아니더라도 더 이상 슬프지는 않군요!</text>
</g>
<!-- are_you_still_sad&#45;&gt;happy -->
<g id="edge35" class="edge"><title>are_you_still_sad&#45;&gt;happy</title>
<path fill="none" stroke="black" d="M1035.31,-350.864C1039.71,-336.614 1045.61,-315.18 1048,-296 1053.94,-248.369 1057.7,-235.01 1048,-188 1045.98,-178.221 1042.24,-168.06 1038.25,-159.027"/>
<polygon fill="black" stroke="black" points="1041.31,-157.307 1033.89,-149.738 1034.97,-160.278 1041.31,-157.307"/>
<text text-anchor="middle" x="1073.98" y="-239.111" font-family="Times,serif" font-size="14.00">아니오</text>
</g>
<!-- rant&#45;&gt;happy -->
<g id="edge36" class="edge"><title>rant&#45;&gt;happy</title>
<path fill="none" stroke="black" d="M956.001,-188.101C968.747,-177.047 981.652,-165.856 992.688,-156.286"/>
<polygon fill="black" stroke="black" points="995.103,-158.825 1000.36,-149.629 990.517,-153.536 995.103,-158.825"/>
</g>
<!-- share -->
<g id="node26" class="node"><title>share</title>
<path fill="none" stroke="black" d="M1179.29,-69.7453C1179.29,-69.7453 866.715,-69.7453 866.715,-69.7453 860.715,-69.7453 854.715,-63.7453 854.715,-57.7453 854.715,-57.7453 854.715,-12.2547 854.715,-12.2547 854.715,-6.25469 860.715,-0.254692 866.715,-0.254692 866.715,-0.254692 1179.29,-0.254692 1179.29,-0.254692 1185.29,-0.254692 1191.29,-6.25469 1191.29,-12.2547 1191.29,-12.2547 1191.29,-57.7453 1191.29,-57.7453 1191.29,-63.7453 1185.29,-69.7453 1179.29,-69.7453"/>
<text text-anchor="middle" x="1023" y="-54.4224" font-family="Times,serif" font-size="14.00">이 플로우 차트를 널리 공유해 주세요</text>
<text text-anchor="middle" x="1023" y="-37.8" font-family="Times,serif" font-size="14.00"> &#160;&#160;&#160;: http://bit.ly/react&#45;makes&#45;you&#45;sad.</text>
<text text-anchor="middle" x="1023" y="-23.8" font-family="Times,serif" font-size="14.00"> &#160;&#160;&#160;다음의 프로젝트에서 영감을 얻어서 만들었습니다</text>
<text text-anchor="middle" x="1023" y="-7.17756" font-family="Times,serif" font-size="14.00"> &#160;&#160;&#160;: https://github.com/petehunt/react&#45;howto.</text>
</g>
<!-- happy&#45;&gt;share -->
<g id="edge37" class="edge"><title>happy&#45;&gt;share</title>
<path fill="none" stroke="black" d="M1023,-108.037C1023,-99.7221 1023,-89.7144 1023,-79.8397"/>
<polygon fill="black" stroke="black" points="1026.5,-79.6738 1023,-69.6739 1019.5,-79.6739 1026.5,-79.6738"/>
</g>
</g>
</svg>
